<svg xmlns="http://www.w3.org/2000/svg" viewBox="0 0 12 12" shape-rendering="crispEdges" fill="currentColor" role="img" aria-label="zkCoins">
  <title>zkCoins symbol</title>
  <!-- Pixel-art Z monogram (12x12 grid). Middle diagonal mirrored vs the current
       zk-coins/app icon.svg so the interior reads clearly as a Z (rows 5/6 swapped).
       Monochrome via currentColor. Must stay crisp-edged — never anti-aliased or smoothed. -->
  <rect x="3" y="1" width="6" height="1"/>
  <rect x="3" y="2" width="1" height="1"/><rect x="8" y="2" width="1" height="1"/>
  <rect x="2" y="3" width="8" height="1"/>
  <rect x="2" y="4" width="2" height="1"/><rect x="8" y="4" width="2" height="1"/>
  <rect x="2" y="5" width="4" height="1"/><rect x="8" y="5" width="2" height="1"/>
  <rect x="2" y="6" width="2" height="1"/><rect x="6" y="6" width="4" height="1"/>
  <rect x="2" y="7" width="2" height="1"/><rect x="8" y="7" width="2" height="1"/>
  <rect x="2" y="8" width="8" height="1"/>
  <rect x="3" y="9" width="1" height="1"/><rect x="8" y="9" width="1" height="1"/>
  <rect x="3" y="10" width="6" height="1"/>
</svg>
